<?xml version="1.0" encoding="UTF-8" standalone="no"?>
<!-- Created with Inkscape (http://www.inkscape.org/) -->

<svg
   xmlns:dc="http://purl.org/dc/elements/1.1/"
   xmlns:cc="http://creativecommons.org/ns#"
   xmlns:rdf="http://www.w3.org/1999/02/22-rdf-syntax-ns#"
   xmlns:svg="http://www.w3.org/2000/svg"
   xmlns="http://www.w3.org/2000/svg"
   xmlns:sodipodi="http://sodipodi.sourceforge.net/DTD/sodipodi-0.dtd"
   xmlns:inkscape="http://www.inkscape.org/namespaces/inkscape"
   width="162.78593mm"
   height="8.1907148mm"
   viewBox="0 0 162.78593 8.1907148"
   version="1.1"
   id="svg8"
   inkscape:version="0.92.4 5da689c313, 2019-01-14"
   sodipodi:docname="tool_name.svg">
  <defs
     id="defs2" />
  <sodipodi:namedview
     id="base"
     pagecolor="#ffffff"
     bordercolor="#666666"
     borderopacity="1.0"
     inkscape:pageopacity="0.0"
     inkscape:pageshadow="2"
     inkscape:zoom="0.98994949"
     inkscape:cx="114.10961"
     inkscape:cy="-165.04901"
     inkscape:document-units="mm"
     inkscape:current-layer="layer1"
     showgrid="false"
     inkscape:window-width="1920"
     inkscape:window-height="1034"
     inkscape:window-x="1920"
     inkscape:window-y="46"
     inkscape:window-maximized="1"
     fit-margin-top="0"
     fit-margin-left="0"
     fit-margin-right="0"
     fit-margin-bottom="0" />
  <metadata
     id="metadata5">
    <rdf:RDF>
      <cc:Work
         rdf:about="">
        <dc:format>image/svg+xml</dc:format>
        <dc:type
           rdf:resource="http://purl.org/dc/dcmitype/StillImage" />
        <dc:title></dc:title>
      </cc:Work>
    </rdf:RDF>
  </metadata>
  <g
     inkscape:label="Layer 1"
     inkscape:groupmode="layer"
     id="layer1"
     transform="translate(-27.163716,-91.456432)">
    <g
       aria-label="Prosobeast Annotation Tool"
       transform="scale(0.26458333)"
       style="font-style:normal;font-weight:normal;font-size:40px;line-height:1.25;font-family:sans-serif;letter-spacing:0px;word-spacing:0px;fill:#28a5e0;fill-opacity:1;stroke:none;stroke-width:1px;stroke-linecap:butt;stroke-linejoin:miter;stroke-opacity:1"
       id="flowRoot4518">
      <path
         d="m 102.66602,346.89258 h 12.48046 q 5.56641,0 8.53516,2.48047 2.98828,2.46093 2.98828,7.03125 0,4.58984 -2.98828,7.07031 -2.96875,2.46094 -8.53516,2.46094 h -4.96093 v 10.11718 h -7.51953 z m 7.51953,5.44922 v 8.14453 h 4.16015 q 2.1875,0 3.37891,-1.05469 1.19141,-1.07422 1.19141,-3.02734 0,-1.95313 -1.19141,-3.00782 -1.19141,-1.05468 -3.37891,-1.05468 z"
         style="font-style:normal;font-variant:normal;font-weight:bold;font-stretch:normal;font-family:sans-serif;-inkscape-font-specification:'sans-serif Bold';fill:#28a5e0;fill-opacity:1"
         id="path4694" />
      <path
         d="m 147.91992,360.13477 q -0.91797,-0.42969 -1.83594,-0.625 -0.89843,-0.21485 -1.8164,-0.21485 -2.69531,0 -4.16016,1.73828 -1.44531,1.71875 -1.44531,4.94141 v 10.07812 h -6.99219 v -21.875 h 6.99219 v 3.59375 q 1.34766,-2.14843 3.08594,-3.125 1.75781,-0.99609 4.19922,-0.99609 0.35156,0 0.76171,0.0391 0.41016,0.0195 1.19141,0.11719 z"
         style="font-style:normal;font-variant:normal;font-weight:bold;font-stretch:normal;font-family:sans-serif;-inkscape-font-specification:'sans-serif Bold';fill:#28a5e0;fill-opacity:1"
         id="path4696" />
      <path
         d="m 161.80664,358.65039 q -2.32422,0 -3.55469,1.67969 -1.21093,1.66015 -1.21093,4.80469 0,3.14453 1.21093,4.82421 1.23047,1.66016 3.55469,1.66016 2.28516,0 3.49609,-1.66016 1.21094,-1.67968 1.21094,-4.82421 0,-3.14454 -1.21094,-4.80469 -1.21093,-1.67969 -3.49609,-1.67969 z m 0,-5 q 5.64453,0 8.80859,3.04688 3.1836,3.04687 3.1836,8.4375 0,5.39062 -3.1836,8.4375 -3.16406,3.04687 -8.80859,3.04687 -5.66406,0 -8.86719,-3.04687 -3.18359,-3.04688 -3.18359,-8.4375 0,-5.39063 3.18359,-8.4375 3.20313,-3.04688 8.86719,-3.04688 z"
         style="font-style:normal;font-variant:normal;font-weight:bold;font-stretch:normal;font-family:sans-serif;-inkscape-font-specification:'sans-serif Bold';fill:#28a5e0;fill-opacity:1"
         id="path4698" />
      <path
         d="m 195.9668,354.86133 v 5.3125 q -2.2461,-0.9375 -4.33594,-1.40625 -2.08984,-0.46875 -3.94531,-0.46875 -1.99219,0 -2.96875,0.50781 -0.95703,0.48828 -0.95703,1.52344 0,0.83984 0.72265,1.28906 0.74219,0.44922 2.63672,0.66406 l 1.23047,0.17578 q 5.37109,0.6836 7.22656,2.2461 1.85547,1.5625 1.85547,4.90234 0,3.4961 -2.57812,5.25391 -2.57813,1.75781 -7.69532,1.75781 -2.16797,0 -4.49218,-0.35156 -2.30469,-0.33203 -4.7461,-1.01563 v -5.3125 q 2.08985,1.01563 4.27735,1.52344 2.20703,0.50781 4.47265,0.50781 2.05078,0 3.08594,-0.5664 1.03516,-0.56641 1.03516,-1.67969 0,-0.9375 -0.72266,-1.38672 -0.70313,-0.46875 -2.83203,-0.72266 l -1.23047,-0.15625 q -4.66797,-0.58593 -6.54297,-2.16796 -1.875,-1.58204 -1.875,-4.80469 0,-3.47656 2.38281,-5.15625 2.38282,-1.67969 7.30469,-1.67969 1.93359,0 4.0625,0.29297 2.12891,0.29297 4.62891,0.91797 z"
         style="font-style:normal;font-variant:normal;font-weight:bold;font-stretch:normal;font-family:sans-serif;-inkscape-font-specification:'sans-serif Bold';fill:#28a5e0;fill-opacity:1"
         id="path4700" />
      <path
         d="m 213.0957,358.65039 q -2.32422,0 -3.55468,1.67969 -1.21094,1.66015 -1.21094,4.80469 0,3.14453 1.21094,4.82421 1.23046,1.66016 3.55468,1.66016 2.28516,0 3.4961,-1.66016 1.21093,-1.67968 1.21093,-4.82421 0,-3.14454 -1.21093,-4.80469 -1.21094,-1.67969 -3.4961,-1.67969 z m 0,-5 q 5.64453,0 8.8086,3.04688 3.18359,3.04687 3.18359,8.4375 0,5.39062 -3.18359,8.4375 -3.16407,3.04687 -8.8086,3.04687 -5.66406,0 -8.86718,-3.04687 -3.1836,-3.04688 -3.1836,-8.4375 0,-5.39063 3.1836,-8.4375 3.20312,-3.04688 8.86718,-3.04688 z"
         style="font-style:normal;font-variant:normal;font-weight:bold;font-stretch:normal;font-family:sans-serif;-inkscape-font-specification:'sans-serif Bold';fill:#28a5e0;fill-opacity:1"
         id="path4702" />
      <path
         d="m 241.80664,371.54102 q 2.24609,0 3.41797,-1.64063 1.19141,-1.64062 1.19141,-4.76562 0,-3.125 -1.19141,-4.76563 -1.17188,-1.64062 -3.41797,-1.64062 -2.24609,0 -3.45703,1.66015 -1.19141,1.64063 -1.19141,4.7461 0,3.10546 1.19141,4.76562 1.21094,1.64063 3.45703,1.64063 z m -4.64844,-14.16016 q 1.44532,-1.91406 3.20313,-2.8125 1.75781,-0.91797 4.04297,-0.91797 4.04297,0 6.64062,3.22266 2.59766,3.20312 2.59766,8.26172 0,5.05859 -2.59766,8.28125 -2.59765,3.20312 -6.64062,3.20312 -2.28516,0 -4.04297,-0.89844 -1.75781,-0.91797 -3.20313,-2.83203 v 3.16406 h -6.99218 v -30.39062 h 6.99218 z"
         style="font-style:normal;font-variant:normal;font-weight:bold;font-stretch:normal;font-family:sans-serif;-inkscape-font-specification:'sans-serif Bold';fill:#28a5e0;fill-opacity:1"
         id="path4704" />
      <path
         d="m 280.63477,365.05664 v 1.99219 h -16.34766 q 0.25391,2.46094 1.77734,3.6914 1.52344,1.23047 4.25782,1.23047 2.20703,0 4.51171,-0.64453 2.32422,-0.66406 4.76563,-1.99219 v 5.39063 q -2.48047,0.9375 -4.96094,1.40625 -2.48047,0.48828 -4.96094,0.48828 -5.9375,0 -9.23828,-3.00781 -3.28125,-3.02735 -3.28125,-8.47656 0,-5.35157 3.22266,-8.41797 3.24219,-3.06641 8.90625,-3.06641 5.15625,0 8.24219,3.10547 3.10547,3.10547 3.10547,8.30078 z m -7.1875,-2.32422 q 0,-1.99219 -1.17188,-3.20312 -1.15234,-1.23047 -3.02734,-1.23047 -2.03125,0 -3.30078,1.15234 -1.26954,1.13281 -1.58204,3.28125 z"
         style="font-style:normal;font-variant:normal;font-weight:bold;font-stretch:normal;font-family:sans-serif;-inkscape-font-specification:'sans-serif Bold';fill:#28a5e0;fill-opacity:1"
         id="path4706" />
      <path
         d="m 295.73242,366.20898 q -2.1875,0 -3.30078,0.74219 -1.09375,0.74219 -1.09375,2.1875 0,1.32813 0.87891,2.08985 0.89843,0.74218 2.48047,0.74218 1.97265,0 3.32031,-1.40625 1.34765,-1.42578 1.34765,-3.55468 v -0.80079 z m 10.6836,-2.63671 v 12.48046 h -7.05079 v -3.24218 q -1.40625,1.99218 -3.16406,2.91015 -1.75781,0.89844 -4.27734,0.89844 -3.39844,0 -5.52735,-1.97266 -2.10937,-1.99218 -2.10937,-5.15625 0,-3.84765 2.63672,-5.64453 2.65625,-1.79687 8.32031,-1.79687 h 4.12109 v -0.54688 q 0,-1.66015 -1.30859,-2.42187 -1.30859,-0.78125 -4.08203,-0.78125 -2.24609,0 -4.17969,0.44922 -1.93359,0.44922 -3.59375,1.34765 v -5.33203 q 2.2461,-0.54687 4.51172,-0.82031 2.26563,-0.29297 4.53125,-0.29297 5.91797,0 8.53516,2.34375 2.63672,2.32422 2.63672,7.57813 z"
         style="font-style:normal;font-variant:normal;font-weight:bold;font-stretch:normal;font-family:sans-serif;-inkscape-font-specification:'sans-serif Bold';fill:#28a5e0;fill-opacity:1"
         id="path4708" />
      <path
         d="m 330.00977,354.86133 v 5.3125 q -2.2461,-0.9375 -4.33594,-1.40625 -2.08985,-0.46875 -3.94531,-0.46875 -1.99219,0 -2.96875,0.50781 -0.95704,0.48828 -0.95704,1.52344 0,0.83984 0.72266,1.28906 0.74219,0.44922 2.63672,0.66406 l 1.23047,0.17578 q 5.37109,0.6836 7.22656,2.2461 1.85547,1.5625 1.85547,4.90234 0,3.4961 -2.57813,5.25391 -2.57812,1.75781 -7.69531,1.75781 -2.16797,0 -4.49219,-0.35156 -2.30468,-0.33203 -4.74609,-1.01563 v -5.3125 q 2.08984,1.01563 4.27734,1.52344 2.20704,0.50781 4.47266,0.50781 2.05078,0 3.08594,-0.5664 1.03515,-0.56641 1.03515,-1.67969 0,-0.9375 -0.72265,-1.38672 -0.70313,-0.46875 -2.83203,-0.72266 l -1.23047,-0.15625 q -4.66797,-0.58593 -6.54297,-2.16796 -1.875,-1.58204 -1.875,-4.80469 0,-3.47656 2.38281,-5.15625 2.38281,-1.67969 7.30469,-1.67969 1.93359,0 4.0625,0.29297 2.12891,0.29297 4.62891,0.91797 z"
         style="font-style:normal;font-variant:normal;font-weight:bold;font-stretch:normal;font-family:sans-serif;-inkscape-font-specification:'sans-serif Bold';fill:#28a5e0;fill-opacity:1"
         id="path4710" />
      <path
         d="m 344.36523,347.9668 v 6.21093 h 7.20704 v 5 h -7.20704 v 9.27735 q 0,1.52344 0.60547,2.07031 0.60547,0.52734 2.40235,0.52734 h 3.59375 v 5 h -5.9961 q -4.14062,0 -5.8789,-1.71875 -1.71875,-1.73828 -1.71875,-5.8789 v -9.27735 h -3.47657 v -5 h 3.47657 v -6.21093 z"
         style="font-style:normal;font-variant:normal;font-weight:bold;font-stretch:normal;font-family:sans-serif;-inkscape-font-specification:'sans-serif Bold';fill:#28a5e0;fill-opacity:1"
         id="path4712" />
      <path
         d="m 387.7832,370.74023 h -11.75781 l -1.85547,5.3125 h -7.55859 l 10.80078,-29.16015 h 8.96484 l 10.80078,29.16015 h -7.55859 z m -9.88281,-5.41015 h 7.98828 l -3.98437,-11.60156 z"
         style="font-style:normal;font-variant:normal;font-weight:bold;font-stretch:normal;font-family:sans-serif;-inkscape-font-specification:'sans-serif Bold';fill:#28a5e0;fill-opacity:1"
         id="path4714" />
      <path
         d="m 422.72461,362.73242 v 13.32031 h -7.03125 v -2.16796 -8.02735 q 0,-2.83203 -0.13672,-3.90625 -0.11719,-1.07422 -0.42969,-1.58203 -0.41015,-0.68359 -1.11328,-1.05469 -0.70312,-0.39062 -1.60156,-0.39062 -2.1875,0 -3.4375,1.69922 -1.25,1.67968 -1.25,4.66797 v 10.76171 h -6.99219 v -21.875 h 6.99219 v 3.20313 q 1.58203,-1.91406 3.35937,-2.8125 1.77735,-0.91797 3.92579,-0.91797 3.78906,0 5.74218,2.32422 1.97266,2.32422 1.97266,6.75781 z"
         style="font-style:normal;font-variant:normal;font-weight:bold;font-stretch:normal;font-family:sans-serif;-inkscape-font-specification:'sans-serif Bold';fill:#28a5e0;fill-opacity:1"
         id="path4716" />
      <path
         d="m 451.20117,362.73242 v 13.32031 h -7.03125 v -2.16796 -8.02735 q 0,-2.83203 -0.13672,-3.90625 -0.11718,-1.07422 -0.42968,-1.58203 -0.41016,-0.68359 -1.11329,-1.05469 -0.70312,-0.39062 -1.60156,-0.39062 -2.1875,0 -3.4375,1.69922 -1.25,1.67968 -1.25,4.66797 v 10.76171 h -6.99219 v -21.875 h 6.99219 v 3.20313 q 1.58203,-1.91406 3.35938,-2.8125 1.77734,-0.91797 3.92578,-0.91797 3.78906,0 5.74219,2.32422 1.97265,2.32422 1.97265,6.75781 z"
         style="font-style:normal;font-variant:normal;font-weight:bold;font-stretch:normal;font-family:sans-serif;-inkscape-font-specification:'sans-serif Bold';fill:#28a5e0;fill-opacity:1"
         id="path4718" />
      <path
         d="m 468.0957,358.65039 q -2.32422,0 -3.55468,1.67969 -1.21094,1.66015 -1.21094,4.80469 0,3.14453 1.21094,4.82421 1.23046,1.66016 3.55468,1.66016 2.28516,0 3.4961,-1.66016 1.21093,-1.67968 1.21093,-4.82421 0,-3.14454 -1.21093,-4.80469 -1.21094,-1.67969 -3.4961,-1.67969 z m 0,-5 q 5.64453,0 8.8086,3.04688 3.18359,3.04687 3.18359,8.4375 0,5.39062 -3.18359,8.4375 -3.16407,3.04687 -8.8086,3.04687 -5.66406,0 -8.86718,-3.04687 -3.1836,-3.04688 -3.1836,-8.4375 0,-5.39063 3.1836,-8.4375 3.20312,-3.04688 8.86718,-3.04688 z"
         style="font-style:normal;font-variant:normal;font-weight:bold;font-stretch:normal;font-family:sans-serif;-inkscape-font-specification:'sans-serif Bold';fill:#28a5e0;fill-opacity:1"
         id="path4720" />
      <path
         d="m 492.80273,347.9668 v 6.21093 h 7.20704 v 5 h -7.20704 v 9.27735 q 0,1.52344 0.60547,2.07031 0.60547,0.52734 2.40235,0.52734 h 3.59375 v 5 h -5.9961 q -4.14062,0 -5.8789,-1.71875 -1.71875,-1.73828 -1.71875,-5.8789 v -9.27735 h -3.47657 v -5 h 3.47657 v -6.21093 z"
         style="font-style:normal;font-variant:normal;font-weight:bold;font-stretch:normal;font-family:sans-serif;-inkscape-font-specification:'sans-serif Bold';fill:#28a5e0;fill-opacity:1"
         id="path4722" />
      <path
         d="m 514.0918,366.20898 q -2.1875,0 -3.30078,0.74219 -1.09375,0.74219 -1.09375,2.1875 0,1.32813 0.8789,2.08985 0.89844,0.74218 2.48047,0.74218 1.97266,0 3.32031,-1.40625 1.34766,-1.42578 1.34766,-3.55468 v -0.80079 z m 10.68359,-2.63671 v 12.48046 h -7.05078 v -3.24218 q -1.40625,1.99218 -3.16406,2.91015 -1.75782,0.89844 -4.27735,0.89844 -3.39843,0 -5.52734,-1.97266 -2.10938,-1.99218 -2.10938,-5.15625 0,-3.84765 2.63672,-5.64453 2.65625,-1.79687 8.32032,-1.79687 h 4.12109 v -0.54688 q 0,-1.66015 -1.30859,-2.42187 -1.3086,-0.78125 -4.08204,-0.78125 -2.24609,0 -4.17968,0.44922 -1.9336,0.44922 -3.59375,1.34765 v -5.33203 q 2.24609,-0.54687 4.51172,-0.82031 2.26562,-0.29297 4.53125,-0.29297 5.91796,0 8.53515,2.34375 2.63672,2.32422 2.63672,7.57813 z"
         style="font-style:normal;font-variant:normal;font-weight:bold;font-stretch:normal;font-family:sans-serif;-inkscape-font-specification:'sans-serif Bold';fill:#28a5e0;fill-opacity:1"
         id="path4724" />
      <path
         d="m 538.91602,347.9668 v 6.21093 h 7.20703 v 5 h -7.20703 v 9.27735 q 0,1.52344 0.60546,2.07031 0.60547,0.52734 2.40235,0.52734 h 3.59375 v 5 h -5.9961 q -4.14062,0 -5.8789,-1.71875 -1.71875,-1.73828 -1.71875,-5.8789 v -9.27735 h -3.47656 v -5 h 3.47656 v -6.21093 z"
         style="font-style:normal;font-variant:normal;font-weight:bold;font-stretch:normal;font-family:sans-serif;-inkscape-font-specification:'sans-serif Bold';fill:#28a5e0;fill-opacity:1"
         id="path4726" />
      <path
         d="m 550.40039,354.17773 h 6.99219 v 21.875 h -6.99219 z m 0,-8.51562 h 6.99219 v 5.70312 h -6.99219 z"
         style="font-style:normal;font-variant:normal;font-weight:bold;font-stretch:normal;font-family:sans-serif;-inkscape-font-specification:'sans-serif Bold';fill:#28a5e0;fill-opacity:1"
         id="path4728" />
      <path
         d="m 574.52148,358.65039 q -2.32421,0 -3.55468,1.67969 -1.21094,1.66015 -1.21094,4.80469 0,3.14453 1.21094,4.82421 1.23047,1.66016 3.55468,1.66016 2.28516,0 3.4961,-1.66016 1.21094,-1.67968 1.21094,-4.82421 0,-3.14454 -1.21094,-4.80469 -1.21094,-1.67969 -3.4961,-1.67969 z m 0,-5 q 5.64454,0 8.8086,3.04688 3.18359,3.04687 3.18359,8.4375 0,5.39062 -3.18359,8.4375 -3.16406,3.04687 -8.8086,3.04687 -5.66406,0 -8.86718,-3.04687 -3.1836,-3.04688 -3.1836,-8.4375 0,-5.39063 3.1836,-8.4375 3.20312,-3.04688 8.86718,-3.04688 z"
         style="font-style:normal;font-variant:normal;font-weight:bold;font-stretch:normal;font-family:sans-serif;-inkscape-font-specification:'sans-serif Bold';fill:#28a5e0;fill-opacity:1"
         id="path4730" />
      <path
         d="m 613.58398,362.73242 v 13.32031 h -7.03125 v -2.16796 -8.02735 q 0,-2.83203 -0.13671,-3.90625 -0.11719,-1.07422 -0.42969,-1.58203 -0.41016,-0.68359 -1.11328,-1.05469 -0.70313,-0.39062 -1.60157,-0.39062 -2.1875,0 -3.4375,1.69922 -1.25,1.67968 -1.25,4.66797 v 10.76171 h -6.99218 v -21.875 h 6.99218 v 3.20313 q 1.58204,-1.91406 3.35938,-2.8125 1.77734,-0.91797 3.92578,-0.91797 3.78906,0 5.74219,2.32422 1.97265,2.32422 1.97265,6.75781 z"
         style="font-style:normal;font-variant:normal;font-weight:bold;font-stretch:normal;font-family:sans-serif;-inkscape-font-specification:'sans-serif Bold';fill:#28a5e0;fill-opacity:1"
         id="path4732" />
      <path
         d="m 630.83008,346.89258 h 26.875 v 5.68359 h -9.66797 v 23.47656 h -7.51953 v -23.47656 h -9.6875 z"
         style="font-style:normal;font-variant:normal;font-weight:bold;font-stretch:normal;font-family:sans-serif;-inkscape-font-specification:'sans-serif Bold';fill:#28a5e0;fill-opacity:1"
         id="path4734" />
      <path
         d="m 666.37695,358.65039 q -2.32422,0 -3.55468,1.67969 -1.21094,1.66015 -1.21094,4.80469 0,3.14453 1.21094,4.82421 1.23046,1.66016 3.55468,1.66016 2.28516,0 3.4961,-1.66016 1.21093,-1.67968 1.21093,-4.82421 0,-3.14454 -1.21093,-4.80469 -1.21094,-1.67969 -3.4961,-1.67969 z m 0,-5 q 5.64453,0 8.8086,3.04688 3.18359,3.04687 3.18359,8.4375 0,5.39062 -3.18359,8.4375 -3.16407,3.04687 -8.8086,3.04687 -5.66406,0 -8.86718,-3.04687 -3.1836,-3.04688 -3.1836,-8.4375 0,-5.39063 3.1836,-8.4375 3.20312,-3.04688 8.86718,-3.04688 z"
         style="font-style:normal;font-variant:normal;font-weight:bold;font-stretch:normal;font-family:sans-serif;-inkscape-font-specification:'sans-serif Bold';fill:#28a5e0;fill-opacity:1"
         id="path4736" />
      <path
         d="m 693.85742,358.65039 q -2.32422,0 -3.55469,1.67969 -1.21093,1.66015 -1.21093,4.80469 0,3.14453 1.21093,4.82421 1.23047,1.66016 3.55469,1.66016 2.28516,0 3.4961,-1.66016 1.21093,-1.67968 1.21093,-4.82421 0,-3.14454 -1.21093,-4.80469 -1.21094,-1.67969 -3.4961,-1.67969 z m 0,-5 q 5.64453,0 8.8086,3.04688 3.18359,3.04687 3.18359,8.4375 0,5.39062 -3.18359,8.4375 -3.16407,3.04687 -8.8086,3.04687 -5.66406,0 -8.86719,-3.04687 -3.18359,-3.04688 -3.18359,-8.4375 0,-5.39063 3.18359,-8.4375 3.20313,-3.04688 8.86719,-3.04688 z"
         style="font-style:normal;font-variant:normal;font-weight:bold;font-stretch:normal;font-family:sans-serif;-inkscape-font-specification:'sans-serif Bold';fill:#28a5e0;fill-opacity:1"
         id="path4738" />
      <path
         d="m 710.92773,345.66211 h 6.99219 v 30.39062 h -6.99219 z"
         style="font-style:normal;font-variant:normal;font-weight:bold;font-stretch:normal;font-family:sans-serif;-inkscape-font-specification:'sans-serif Bold';fill:#28a5e0;fill-opacity:1"
         id="path4740" />
    </g>
    <flowRoot
       xml:space="preserve"
       id="flowRoot4526"
       style="font-style:normal;font-weight:normal;font-size:40px;line-height:1.25;font-family:sans-serif;letter-spacing:0px;word-spacing:0px;fill:#000000;fill-opacity:1;stroke:none;stroke-width:1px;stroke-linecap:butt;stroke-linejoin:miter;stroke-opacity:1"
       transform="scale(0.26458333)"><flowRegion
         id="flowRegion4528"><rect
           id="rect4530"
           width="717.20831"
           height="114.14724"
           x="78.791901"
           y="326.51947" /></flowRegion><flowPara
         id="flowPara4532"></flowPara></flowRoot>  </g>
</svg>
