<?xml version="1.0" encoding="UTF-8" standalone="no"?>
<svg
   xmlns:dc="http://purl.org/dc/elements/1.1/"
   xmlns:cc="http://creativecommons.org/ns#"
   xmlns:rdf="http://www.w3.org/1999/02/22-rdf-syntax-ns#"
   xmlns:svg="http://www.w3.org/2000/svg"
   xmlns="http://www.w3.org/2000/svg"
   xmlns:sodipodi="http://sodipodi.sourceforge.net/DTD/sodipodi-0.dtd"
   xmlns:inkscape="http://www.inkscape.org/namespaces/inkscape"
   width="162.78593mm"
   height="8.1907148mm"
   viewBox="0 0 162.78593 8.1907148"
   version="1.1"
   id="svg8"
   inkscape:version="1.0.2 (e86c870879, 2021-01-15)"
   sodipodi:docname="tool_name.svg">
  <defs
     id="defs2" />
  <sodipodi:namedview
     id="base"
     pagecolor="#ffffff"
     bordercolor="#666666"
     borderopacity="1.0"
     inkscape:pageopacity="0.0"
     inkscape:pageshadow="2"
     inkscape:zoom="1.4"
     inkscape:cx="168.31927"
     inkscape:cy="-52.465107"
     inkscape:document-units="mm"
     inkscape:current-layer="layer1"
     showgrid="false"
     inkscape:window-width="2036"
     inkscape:window-height="1370"
     inkscape:window-x="1571"
     inkscape:window-y="41"
     inkscape:window-maximized="0"
     fit-margin-top="0"
     fit-margin-left="0"
     fit-margin-right="0"
     fit-margin-bottom="0"
     inkscape:document-rotation="0" />
  <metadata
     id="metadata5">
    <rdf:RDF>
      <cc:Work
         rdf:about="">
        <dc:format>image/svg+xml</dc:format>
        <dc:type
           rdf:resource="http://purl.org/dc/dcmitype/StillImage" />
        <dc:title></dc:title>
      </cc:Work>
    </rdf:RDF>
  </metadata>
  <g
     inkscape:label="Layer 1"
     inkscape:groupmode="layer"
     id="layer1"
     transform="translate(-27.163716,-91.456432)">
    <path
       d="m 27.163717,91.781994 h 3.302122 q 1.472779,0 2.258261,0.656291 0.790649,0.651121 0.790649,1.860352 0,1.214395 -0.790649,1.870686 -0.785482,0.651123 -2.258261,0.651123 H 29.15326 v 2.676838 h -1.989543 z m 1.989543,1.441773 v 2.154907 h 1.100706 q 0.578776,0 0.894003,-0.279054 0.315228,-0.28422 0.315228,-0.800983 0,-0.516766 -0.315228,-0.79582 -0.315227,-0.27905 -0.894003,-0.27905 z"
       style="font-style:normal;font-variant:normal;font-weight:bold;font-stretch:normal;font-size:40px;line-height:1.25;font-family:sans-serif;-inkscape-font-specification:'sans-serif Bold';letter-spacing:0px;word-spacing:0px;fill:#28a5e0;fill-opacity:1;stroke:none;stroke-width:0.264583px;stroke-linecap:butt;stroke-linejoin:miter;stroke-opacity:1"
       id="path4694" />
    <path
       d="m 39.137145,95.285657 q -0.24288,-0.113689 -0.485759,-0.165365 -0.23771,-0.05685 -0.480589,-0.05685 -0.713134,0 -1.100709,0.45992 -0.382405,0.454753 -0.382405,1.307415 v 2.666503 h -1.850017 v -5.787761 h 1.850017 v 0.950847 q 0.356568,-0.568439 0.816488,-0.826823 0.465087,-0.263549 1.111044,-0.263549 0.09302,0 0.201535,0.01035 0.108522,0.0052 0.315228,0.03101 z"
       style="font-style:normal;font-variant:normal;font-weight:bold;font-stretch:normal;font-size:40px;line-height:1.25;font-family:sans-serif;-inkscape-font-specification:'sans-serif Bold';letter-spacing:0px;word-spacing:0px;fill:#28a5e0;fill-opacity:1;stroke:none;stroke-width:0.264583px;stroke-linecap:butt;stroke-linejoin:miter;stroke-opacity:1"
       id="path4696" />
    <path
       d="m 42.81134,94.892914 q -0.61495,0 -0.940512,0.444418 -0.320392,0.439248 -0.320392,1.271241 0,0.831991 0.320392,1.276406 0.325562,0.439251 0.940512,0.439251 0.604615,0 0.925007,-0.439251 0.320394,-0.444415 0.320394,-1.276406 0,-0.831993 -0.320394,-1.271241 -0.320392,-0.444418 -0.925007,-0.444418 z m 0,-1.322916 q 1.493448,0 2.330606,0.806153 0.842327,0.806152 0.842327,2.232422 0,1.426269 -0.842327,2.232422 -0.837158,0.806151 -2.330606,0.806151 -1.498616,0 -2.346111,-0.806151 -0.842325,-0.806153 -0.842325,-2.232422 0,-1.42627 0.842325,-2.232422 0.847495,-0.806153 2.346111,-0.806153 z"
       style="font-style:normal;font-variant:normal;font-weight:bold;font-stretch:normal;font-size:40px;line-height:1.25;font-family:sans-serif;-inkscape-font-specification:'sans-serif Bold';letter-spacing:0px;word-spacing:0px;fill:#28a5e0;fill-opacity:1;stroke:none;stroke-width:0.264583px;stroke-linecap:butt;stroke-linejoin:miter;stroke-opacity:1"
       id="path4698" />
    <path
       d="m 51.849549,93.890392 v 1.405599 q -0.594281,-0.248047 -1.147218,-0.37207 -0.552937,-0.124023 -1.043863,-0.124023 -0.5271,0 -0.785482,0.134358 -0.253214,0.12919 -0.253214,0.403076 0,0.222208 0.191201,0.341064 0.196371,0.118856 0.697632,0.175699 l 0.325562,0.04651 q 1.421101,0.180869 1.912027,0.594281 0.490927,0.413411 0.490927,1.297077 0,0.92501 -0.682128,1.390097 -0.68213,0.465087 -2.036053,0.465087 -0.573609,0 -1.188556,-0.09302 -0.609783,-0.08785 -1.255739,-0.268718 V 97.87981 q 0.552939,0.268718 1.131715,0.403076 0.583944,0.134358 1.183389,0.134358 0.542602,0 0.816488,-0.14986 0.273886,-0.149862 0.273886,-0.444418 0,-0.248046 -0.191203,-0.366902 Q 50.102883,97.33204 49.539612,97.26486 L 49.21405,97.22352 q -1.235067,-0.155028 -1.731161,-0.573607 -0.496094,-0.418581 -0.496094,-1.27124 0,-0.91984 0.630452,-1.364258 0.630455,-0.444418 1.932699,-0.444418 0.511596,0 1.07487,0.07752 0.563274,0.07751 1.224733,0.242879 z"
       style="font-style:normal;font-variant:normal;font-weight:bold;font-stretch:normal;font-size:40px;line-height:1.25;font-family:sans-serif;-inkscape-font-specification:'sans-serif Bold';letter-spacing:0px;word-spacing:0px;fill:#28a5e0;fill-opacity:1;stroke:none;stroke-width:0.264583px;stroke-linecap:butt;stroke-linejoin:miter;stroke-opacity:1"
       id="path4700" />
    <path
       d="m 56.38157,94.892914 q -0.61495,0 -0.940509,0.444418 -0.320395,0.439248 -0.320395,1.271241 0,0.831991 0.320395,1.276406 0.325559,0.439251 0.940509,0.439251 0.604615,0 0.92501,-0.439251 0.320392,-0.444415 0.320392,-1.276406 0,-0.831993 -0.320392,-1.271241 -0.320395,-0.444418 -0.92501,-0.444418 z m 0,-1.322916 q 1.493448,0 2.330609,0.806153 0.842324,0.806152 0.842324,2.232422 0,1.426269 -0.842324,2.232422 -0.837161,0.806151 -2.330609,0.806151 -1.498616,0 -2.346108,-0.806151 -0.842328,-0.806153 -0.842328,-2.232422 0,-1.42627 0.842328,-2.232422 0.847492,-0.806153 2.346108,-0.806153 z"
       style="font-style:normal;font-variant:normal;font-weight:bold;font-stretch:normal;font-size:40px;line-height:1.25;font-family:sans-serif;-inkscape-font-specification:'sans-serif Bold';letter-spacing:0px;word-spacing:0px;fill:#28a5e0;fill-opacity:1;stroke:none;stroke-width:0.264583px;stroke-linecap:butt;stroke-linejoin:miter;stroke-opacity:1"
       id="path4702" />
    <path
       d="m 74.251282,96.587901 v 0.527101 h -4.325318 q 0.06718,0.651123 0.470254,0.976683 0.403077,0.325561 1.126548,0.325561 0.583944,0 1.193724,-0.170531 0.614949,-0.1757 1.260906,-0.527101 v 1.426271 q -0.656291,0.248047 -1.312582,0.37207 -0.656291,0.129191 -1.312582,0.129191 -1.570964,0 -2.444295,-0.795816 -0.868164,-0.800987 -0.868164,-2.242757 0,-1.415936 0.852662,-2.227254 0.857829,-0.811321 2.356445,-0.811321 1.364258,0 2.180746,0.821655 0.821656,0.821656 0.821656,2.196248 z m -1.901693,-0.614949 q 0,-0.527101 -0.31006,-0.847493 -0.30489,-0.325561 -0.800983,-0.325561 -0.537435,0 -0.873332,0.30489 -0.335899,0.299722 -0.418581,0.868164 z"
       style="font-style:normal;font-variant:normal;font-weight:bold;font-stretch:normal;font-size:40px;line-height:1.25;font-family:sans-serif;-inkscape-font-specification:'sans-serif Bold';letter-spacing:0px;word-spacing:0px;fill:#28a5e0;fill-opacity:1;stroke:none;stroke-width:0.264583px;stroke-linecap:butt;stroke-linejoin:miter;stroke-opacity:1"
       id="path4706" />
    <path
       d="m 78.245868,96.892791 q -0.578776,0 -0.873331,0.196372 -0.289388,0.196371 -0.289388,0.578776 0,0.351401 0.232545,0.552939 0.23771,0.196368 0.656291,0.196368 0.52193,0 0.878499,-0.37207 0.356565,-0.377237 0.356565,-0.940509 v -0.211876 z m 2.826703,-0.697629 v 3.302122 h -1.865522 v -0.857827 q -0.37207,0.527097 -0.837157,0.769977 -0.465087,0.237712 -1.131713,0.237712 -0.899171,0 -1.462445,-0.521933 -0.558104,-0.527097 -0.558104,-1.364258 0,-1.018024 0.697632,-1.493448 0.7028,-0.475422 2.201416,-0.475422 h 1.090371 V 95.64739 q 0,-0.439248 -0.346231,-0.640787 -0.346231,-0.206705 -1.080037,-0.206705 -0.594278,0 -1.105876,0.118856 -0.511596,0.118856 -0.950846,0.356565 v -1.410766 q 0.59428,-0.144693 1.193726,-0.21704 0.599447,-0.07752 1.198893,-0.07752 1.565796,0 2.258261,0.620117 0.697632,0.61495 0.697632,2.005047 z"
       style="font-style:normal;font-variant:normal;font-weight:bold;font-stretch:normal;font-size:40px;line-height:1.25;font-family:sans-serif;-inkscape-font-specification:'sans-serif Bold';letter-spacing:0px;word-spacing:0px;fill:#28a5e0;fill-opacity:1;stroke:none;stroke-width:0.264583px;stroke-linecap:butt;stroke-linejoin:miter;stroke-opacity:1"
       id="path4708" />
    <path
       d="m 87.315084,93.890392 v 1.405599 q -0.594281,-0.248047 -1.147218,-0.37207 -0.552939,-0.124023 -1.043863,-0.124023 -0.5271,0 -0.785482,0.134358 -0.253216,0.12919 -0.253216,0.403076 0,0.222208 0.191203,0.341064 0.196371,0.118856 0.697633,0.175699 l 0.325561,0.04651 q 1.421101,0.180869 1.912028,0.594281 0.490926,0.413411 0.490926,1.297077 0,0.92501 -0.68213,1.390097 -0.682128,0.465087 -2.036051,0.465087 -0.573609,0 -1.188558,-0.09302 -0.60978,-0.08785 -1.255737,-0.268718 V 97.87981 q 0.552937,0.268718 1.131713,0.403076 0.583946,0.134358 1.183391,0.134358 0.542603,0 0.816489,-0.14986 0.273883,-0.149862 0.273883,-0.444418 0,-0.248046 -0.191201,-0.366902 -0.186036,-0.124024 -0.749308,-0.191204 l -0.325562,-0.04134 q -1.235067,-0.155028 -1.731161,-0.573607 -0.496093,-0.418581 -0.496093,-1.27124 0,-0.91984 0.630451,-1.364258 0.630452,-0.444418 1.9327,-0.444418 0.511595,0 1.074869,0.07752 0.563275,0.07751 1.224733,0.242879 z"
       style="font-style:normal;font-variant:normal;font-weight:bold;font-stretch:normal;font-size:40px;line-height:1.25;font-family:sans-serif;-inkscape-font-specification:'sans-serif Bold';letter-spacing:0px;word-spacing:0px;fill:#28a5e0;fill-opacity:1;stroke:none;stroke-width:0.264583px;stroke-linecap:butt;stroke-linejoin:miter;stroke-opacity:1"
       id="path4710" />
    <path
       d="m 91.113299,92.066215 v 1.643308 h 1.906863 v 1.322917 h -1.906863 v 2.454632 q 0,0.403077 0.160198,0.54777 0.160197,0.139525 0.635621,0.139525 h 0.950847 v 1.322917 h -1.586468 q -1.095539,0 -1.555459,-0.454753 -0.454753,-0.45992 -0.454753,-1.555459 V 95.03244 h -0.919842 v -1.322917 h 0.919842 v -1.643308 z"
       style="font-style:normal;font-variant:normal;font-weight:bold;font-stretch:normal;font-size:40px;line-height:1.25;font-family:sans-serif;-inkscape-font-specification:'sans-serif Bold';letter-spacing:0px;word-spacing:0px;fill:#28a5e0;fill-opacity:1;stroke:none;stroke-width:0.264583px;stroke-linecap:butt;stroke-linejoin:miter;stroke-opacity:1"
       id="path4712" />
    <path
       d="m 102.60097,98.091685 h -3.11092 l -0.490927,1.405599 h -1.999876 l 2.857706,-7.71529 h 2.371947 l 2.85771,7.71529 h -1.99988 z m -2.614826,-1.431436 h 2.113566 l -1.0542,-3.069579 z"
       style="font-style:normal;font-variant:normal;font-weight:bold;font-stretch:normal;font-size:40px;line-height:1.25;font-family:sans-serif;-inkscape-font-specification:'sans-serif Bold';letter-spacing:0px;word-spacing:0px;fill:#28a5e0;fill-opacity:1;stroke:none;stroke-width:0.264583px;stroke-linecap:butt;stroke-linejoin:miter;stroke-opacity:1"
       id="path4714" />
    <path
       d="m 111.84588,95.972952 v 3.524332 h -1.86035 v -0.573607 -2.123903 q 0,-0.749307 -0.0362,-1.033528 -0.031,-0.284221 -0.11369,-0.418579 -0.10852,-0.180866 -0.29455,-0.279053 -0.18604,-0.103352 -0.42375,-0.103352 -0.57878,0 -0.90951,0.449585 -0.33072,0.444416 -0.33072,1.235067 v 2.84737 h -1.85002 v -5.787761 h 1.85002 v 0.847495 q 0.41857,-0.506428 0.88883,-0.744141 0.47026,-0.242879 1.0387,-0.242879 1.00252,0 1.51928,0.61495 0.52193,0.61495 0.52193,1.788004 z"
       style="font-style:normal;font-variant:normal;font-weight:bold;font-stretch:normal;font-size:40px;line-height:1.25;font-family:sans-serif;-inkscape-font-specification:'sans-serif Bold';letter-spacing:0px;word-spacing:0px;fill:#28a5e0;fill-opacity:1;stroke:none;stroke-width:0.264583px;stroke-linecap:butt;stroke-linejoin:miter;stroke-opacity:1"
       id="path4716" />
    <path
       d="m 119.38031,95.972952 v 3.524332 h -1.86035 v -0.573607 -2.123903 q 0,-0.749307 -0.0362,-1.033528 -0.031,-0.284221 -0.11368,-0.418579 -0.10852,-0.180866 -0.29456,-0.279053 -0.18604,-0.103352 -0.42375,-0.103352 -0.57877,0 -0.9095,0.449585 -0.33073,0.444416 -0.33073,1.235067 v 2.84737 h -1.85002 v -5.787761 h 1.85002 v 0.847495 q 0.41858,-0.506428 0.88883,-0.744141 0.47026,-0.242879 1.0387,-0.242879 1.00252,0 1.51929,0.61495 0.52193,0.61495 0.52193,1.788004 z"
       style="font-style:normal;font-variant:normal;font-weight:bold;font-stretch:normal;font-size:40px;line-height:1.25;font-family:sans-serif;-inkscape-font-specification:'sans-serif Bold';letter-spacing:0px;word-spacing:0px;fill:#28a5e0;fill-opacity:1;stroke:none;stroke-width:0.264583px;stroke-linecap:butt;stroke-linejoin:miter;stroke-opacity:1"
       id="path4718" />
    <path
       d="m 123.85032,94.892914 q -0.61495,0 -0.94051,0.444418 -0.32039,0.439248 -0.32039,1.271241 0,0.831991 0.32039,1.276406 0.32556,0.439251 0.94051,0.439251 0.60461,0 0.92501,-0.439251 0.32039,-0.444415 0.32039,-1.276406 0,-0.831993 -0.32039,-1.271241 -0.3204,-0.444418 -0.92501,-0.444418 z m 0,-1.322916 q 1.49345,0 2.33061,0.806153 0.84232,0.806152 0.84232,2.232422 0,1.426269 -0.84232,2.232422 -0.83716,0.806151 -2.33061,0.806151 -1.49862,0 -2.34611,-0.806151 -0.84233,-0.806153 -0.84233,-2.232422 0,-1.42627 0.84233,-2.232422 0.84749,-0.806153 2.34611,-0.806153 z"
       style="font-style:normal;font-variant:normal;font-weight:bold;font-stretch:normal;font-size:40px;line-height:1.25;font-family:sans-serif;-inkscape-font-specification:'sans-serif Bold';letter-spacing:0px;word-spacing:0px;fill:#28a5e0;fill-opacity:1;stroke:none;stroke-width:0.264583px;stroke-linecap:butt;stroke-linejoin:miter;stroke-opacity:1"
       id="path4720" />
    <path
       d="m 130.38739,92.066215 v 1.643308 h 1.90686 v 1.322917 h -1.90686 v 2.454632 q 0,0.403077 0.16019,0.54777 0.1602,0.139525 0.63563,0.139525 h 0.95084 v 1.322917 h -1.58647 q -1.09553,0 -1.55545,-0.454753 -0.45476,-0.45992 -0.45476,-1.555459 V 95.03244 h -0.91984 v -1.322917 h 0.91984 v -1.643308 z"
       style="font-style:normal;font-variant:normal;font-weight:bold;font-stretch:normal;font-size:40px;line-height:1.25;font-family:sans-serif;-inkscape-font-specification:'sans-serif Bold';letter-spacing:0px;word-spacing:0px;fill:#28a5e0;fill-opacity:1;stroke:none;stroke-width:0.264583px;stroke-linecap:butt;stroke-linejoin:miter;stroke-opacity:1"
       id="path4722" />
    <path
       d="m 136.02012,96.892791 q -0.57878,0 -0.87333,0.196372 -0.28939,0.196371 -0.28939,0.578776 0,0.351401 0.23254,0.552939 0.23772,0.196368 0.65629,0.196368 0.52194,0 0.8785,-0.37207 0.35657,-0.377237 0.35657,-0.940509 v -0.211876 z m 2.8267,-0.697629 v 3.302122 h -1.86552 v -0.857827 q -0.37207,0.527097 -0.83716,0.769977 -0.46509,0.237712 -1.13171,0.237712 -0.89917,0 -1.46244,-0.521933 -0.55811,-0.527097 -0.55811,-1.364258 0,-1.018024 0.69763,-1.493448 0.7028,-0.475422 2.20142,-0.475422 h 1.09037 V 95.64739 q 0,-0.439248 -0.34623,-0.640787 -0.34623,-0.206705 -1.08004,-0.206705 -0.59428,0 -1.10587,0.118856 -0.5116,0.118856 -0.95085,0.356565 v -1.410766 q 0.59428,-0.144693 1.19373,-0.21704 0.59944,-0.07752 1.19889,-0.07752 1.56579,0 2.25826,0.620117 0.69763,0.61495 0.69763,2.005047 z"
       style="font-style:normal;font-variant:normal;font-weight:bold;font-stretch:normal;font-size:40px;line-height:1.25;font-family:sans-serif;-inkscape-font-specification:'sans-serif Bold';letter-spacing:0px;word-spacing:0px;fill:#28a5e0;fill-opacity:1;stroke:none;stroke-width:0.264583px;stroke-linecap:butt;stroke-linejoin:miter;stroke-opacity:1"
       id="path4724" />
    <path
       d="m 142.5882,92.066215 v 1.643308 h 1.90686 v 1.322917 h -1.90686 v 2.454632 q 0,0.403077 0.16019,0.54777 0.1602,0.139525 0.63562,0.139525 h 0.95085 v 1.322917 h -1.58647 q -1.09554,0 -1.55546,-0.454753 -0.45475,-0.45992 -0.45475,-1.555459 V 95.03244 h -0.91984 v -1.322917 h 0.91984 v -1.643308 z"
       style="font-style:normal;font-variant:normal;font-weight:bold;font-stretch:normal;font-size:40px;line-height:1.25;font-family:sans-serif;-inkscape-font-specification:'sans-serif Bold';letter-spacing:0px;word-spacing:0px;fill:#28a5e0;fill-opacity:1;stroke:none;stroke-width:0.264583px;stroke-linecap:butt;stroke-linejoin:miter;stroke-opacity:1"
       id="path4726" />
    <path
       d="m 145.62677,93.709523 h 1.85001 v 5.787761 h -1.85001 z m 0,-2.253091 h 1.85001 v 1.508951 h -1.85001 z"
       style="font-style:normal;font-variant:normal;font-weight:bold;font-stretch:normal;font-size:40px;line-height:1.25;font-family:sans-serif;-inkscape-font-specification:'sans-serif Bold';letter-spacing:0px;word-spacing:0px;fill:#28a5e0;fill-opacity:1;stroke:none;stroke-width:0.264583px;stroke-linecap:butt;stroke-linejoin:miter;stroke-opacity:1"
       id="path4728" />
    <path
       d="m 152.00881,94.892914 q -0.61495,0 -0.94051,0.444418 -0.3204,0.439248 -0.3204,1.271241 0,0.831991 0.3204,1.276406 0.32556,0.439251 0.94051,0.439251 0.60461,0 0.92501,-0.439251 0.32039,-0.444415 0.32039,-1.276406 0,-0.831993 -0.32039,-1.271241 -0.3204,-0.444418 -0.92501,-0.444418 z m 0,-1.322916 q 1.49345,0 2.33061,0.806153 0.84232,0.806152 0.84232,2.232422 0,1.426269 -0.84232,2.232422 -0.83716,0.806151 -2.33061,0.806151 -1.49862,0 -2.34611,-0.806151 -0.84233,-0.806153 -0.84233,-2.232422 0,-1.42627 0.84233,-2.232422 0.84749,-0.806153 2.34611,-0.806153 z"
       style="font-style:normal;font-variant:normal;font-weight:bold;font-stretch:normal;font-size:40px;line-height:1.25;font-family:sans-serif;-inkscape-font-specification:'sans-serif Bold';letter-spacing:0px;word-spacing:0px;fill:#28a5e0;fill-opacity:1;stroke:none;stroke-width:0.264583px;stroke-linecap:butt;stroke-linejoin:miter;stroke-opacity:1"
       id="path4730" />
    <path
       d="m 162.34409,95.972952 v 3.524332 h -1.86035 v -0.573607 -2.123903 q 0,-0.749307 -0.0362,-1.033528 -0.031,-0.284221 -0.11369,-0.418579 -0.10852,-0.180866 -0.29455,-0.279053 -0.18604,-0.103352 -0.42375,-0.103352 -0.57878,0 -0.90951,0.449585 -0.33073,0.444416 -0.33073,1.235067 v 2.84737 h -1.85001 v -5.787761 h 1.85001 v 0.847495 q 0.41858,-0.506428 0.88884,-0.744141 0.47025,-0.242879 1.03869,-0.242879 1.00253,0 1.51929,0.61495 0.52193,0.61495 0.52193,1.788004 z"
       style="font-style:normal;font-variant:normal;font-weight:bold;font-stretch:normal;font-size:40px;line-height:1.25;font-family:sans-serif;-inkscape-font-specification:'sans-serif Bold';letter-spacing:0px;word-spacing:0px;fill:#28a5e0;fill-opacity:1;stroke:none;stroke-width:0.264583px;stroke-linecap:butt;stroke-linejoin:miter;stroke-opacity:1"
       id="path4732" />
    <path
       d="m 166.90712,91.781994 h 7.11068 v 1.503783 h -2.55798 v 6.211507 h -1.98955 v -6.211507 h -2.56315 z"
       style="font-style:normal;font-variant:normal;font-weight:bold;font-stretch:normal;font-size:40px;line-height:1.25;font-family:sans-serif;-inkscape-font-specification:'sans-serif Bold';letter-spacing:0px;word-spacing:0px;fill:#28a5e0;fill-opacity:1;stroke:none;stroke-width:0.264583px;stroke-linecap:butt;stroke-linejoin:miter;stroke-opacity:1"
       id="path4734" />
    <path
       d="m 176.31223,94.892914 q -0.61495,0 -0.94051,0.444418 -0.32039,0.439248 -0.32039,1.271241 0,0.831991 0.32039,1.276406 0.32556,0.439251 0.94051,0.439251 0.60462,0 0.92501,-0.439251 0.32039,-0.444415 0.32039,-1.276406 0,-0.831993 -0.32039,-1.271241 -0.32039,-0.444418 -0.92501,-0.444418 z m 0,-1.322916 q 1.49345,0 2.33061,0.806153 0.84233,0.806152 0.84233,2.232422 0,1.426269 -0.84233,2.232422 -0.83716,0.806151 -2.33061,0.806151 -1.49861,0 -2.34611,-0.806151 -0.84232,-0.806153 -0.84232,-2.232422 0,-1.42627 0.84232,-2.232422 0.8475,-0.806153 2.34611,-0.806153 z"
       style="font-style:normal;font-variant:normal;font-weight:bold;font-stretch:normal;font-size:40px;line-height:1.25;font-family:sans-serif;-inkscape-font-specification:'sans-serif Bold';letter-spacing:0px;word-spacing:0px;fill:#28a5e0;fill-opacity:1;stroke:none;stroke-width:0.264583px;stroke-linecap:butt;stroke-linejoin:miter;stroke-opacity:1"
       id="path4736" />
    <path
       d="m 183.58311,94.892914 q -0.61495,0 -0.94051,0.444418 -0.3204,0.439248 -0.3204,1.271241 0,0.831991 0.3204,1.276406 0.32556,0.439251 0.94051,0.439251 0.60461,0 0.92501,-0.439251 0.32039,-0.444415 0.32039,-1.276406 0,-0.831993 -0.32039,-1.271241 -0.3204,-0.444418 -0.92501,-0.444418 z m 0,-1.322916 q 1.49345,0 2.33061,0.806153 0.84232,0.806152 0.84232,2.232422 0,1.426269 -0.84232,2.232422 -0.83716,0.806151 -2.33061,0.806151 -1.49862,0 -2.34611,-0.806151 -0.84233,-0.806153 -0.84233,-2.232422 0,-1.42627 0.84233,-2.232422 0.84749,-0.806153 2.34611,-0.806153 z"
       style="font-style:normal;font-variant:normal;font-weight:bold;font-stretch:normal;font-size:40px;line-height:1.25;font-family:sans-serif;-inkscape-font-specification:'sans-serif Bold';letter-spacing:0px;word-spacing:0px;fill:#28a5e0;fill-opacity:1;stroke:none;stroke-width:0.264583px;stroke-linecap:butt;stroke-linejoin:miter;stroke-opacity:1"
       id="path4738" />
    <path
       d="m 188.09963,91.456432 h 1.85001 v 8.040852 h -1.85001 z"
       style="font-style:normal;font-variant:normal;font-weight:bold;font-stretch:normal;font-size:40px;line-height:1.25;font-family:sans-serif;-inkscape-font-specification:'sans-serif Bold';letter-spacing:0px;word-spacing:0px;fill:#28a5e0;fill-opacity:1;stroke:none;stroke-width:0.264583px;stroke-linecap:butt;stroke-linejoin:miter;stroke-opacity:1"
       id="path4740" />
    <flowRoot
       xml:space="preserve"
       id="flowRoot4526"
       style="font-style:normal;font-weight:normal;font-size:40px;line-height:1.25;font-family:sans-serif;letter-spacing:0px;word-spacing:0px;fill:#000000;fill-opacity:1;stroke:none;stroke-width:1px;stroke-linecap:butt;stroke-linejoin:miter;stroke-opacity:1"
       transform="scale(0.26458333)"><flowRegion
         id="flowRegion4528"><rect
           id="rect4530"
           width="717.20831"
           height="114.14724"
           x="78.791901"
           y="326.51947" /></flowRegion><flowPara
         id="flowPara4532" /></flowRoot>
    <text
       xml:space="preserve"
       style="font-style:normal;font-weight:normal;font-size:10.9355px;line-height:1.25;font-family:sans-serif;fill:#28a5e0;fill-opacity:1;stroke:none;stroke-width:0.273819;stroke-miterlimit:4;stroke-dasharray:none"
       x="60.164928"
       y="99.540115"
       id="text38"><tspan
         sodipodi:role="line"
         id="tspan36"
         x="60.164928"
         y="99.540115"
         style="font-style:normal;font-variant:normal;font-weight:bold;font-stretch:normal;font-family:Roboto;-inkscape-font-specification:'Roboto Bold';fill:#28a5e0;fill-opacity:1;stroke-width:0.273819;stroke-miterlimit:4;stroke-dasharray:none"
         rotate="0 0">B</tspan></text>
  </g>
</svg>
